{"title":"The Devil's Backbone 2001 DVDrip EnglishSub Klam","uid":6093189,"size":1682530469,"categoryP":"video","categoryS":"movies","magnet":"?xt=urn:btih:1be31ce8ee300e00c51e6b57913b7585c25d021a&amp;dn=The+Devil%5C%27s+Backbone+2001+DVDrip+EnglishSub+Klam&amp;tr=udp%3A%2F%2Ftracker.openbittorrent.com%3A80&amp;tr=udp%3A%2F%2Fopen.demonii.com%3A1337&amp;tr=udp%3A%2F%2Ftracker.coppersurfer.tk%3A6969&amp;tr=udp%3A%2F%2Fexodus.desync.com%3A6969","seeders":19,"leechers":3,"uploader":"Klambake","files":-1,"time":1294649679,"description":"With: Eduardo Noriega, Marisa Paredes And Federico Luppi\n\nIt is 1939, the end of three years of bloody civil war in Spain, and General Franco's right-wing Nationalists are poised to defeat the left-wing Republican forces. A ten-year-old boy named Carlos, the son of a fallen Republican war hero, is left by his tutor in an orphanage in the middle of nowhere. The orphanage is run by a curt but considerate headmistress named Carmen and a kindly Professor Casares, both of whom are sympathetic to the doomed Republican cause. Despite their concern for him, and his gradual triumph over the usual schoolhouse bully, Carlos never feels completely comfortable in his new environment. First of all, there was that initial encounter with the orphanage's nasty caretaker, Jacinto, who reacts even more violently when anyone is caught looking around a particular storage room the one with the deep well. Second, and more inexplicable, is the presence of a ghost, one of the former occupants of the orphanage named Santi... \n\nGeneral:\n\nComplete name                    : The Devils\\Backnone.avi\nFormat                           : AVI\nFormat/Info                      : Audio Video Interleave\nFile size                        : 1.57 GiB\nDuration                         : 1h 43mn\nOverall bit rate                 : 2 177 Kbps\n\nVideo:\n\nFormat                           : MPEG-4 Visual\nFormat profile                   : Simple@L3\nFormat settings, BVOP            : No\nFormat settings, QPel            : No\nFormat settings, GMC             : No warppoints\nFormat settings, Matrix          : Default (H.263)\nCodec ID                         : XVID\nCodec ID/Hint                    : XviD\nDuration                         : 1h 43mn\nBit rate                         : 1 782 Kbps\nWidth                            : 720 pixels\nHeight                           : 400 pixels\nDisplay aspect ratio             : 16:9\nFrame rate                       : 25.000 fps\nColor space                      : YUV\nChroma subsampling               : 4:2:0\nBit depth                        : 8 bits\nScan type                        : Progressive\nBits/(Pixel*Frame)               : 0.247\nStream size                      : 1.28 GiB (82%)\nWriting library                  : XviD 1.1.2 (UTC 2006-11-01)\n\nAudio:\n\nFormat                           : AC-3\nFormat/Info                      : Audio Coding 3\nMode extension                   : CM (complete main)\nCodec ID                         : 2000\nDuration                         : 1h 43mn\nBit rate mode                    : Constant\nBit rate                         : 384 Kbps\nChannel(s)                       : 6 channels\nChannel positions                : Front: L C R, Side: L R, LFE\nSampling rate                    : 48.0 KHz\nBit depth                        : 16 bits\nStream size                      : 283 MiB (18%)\nAlignment                        : Aligned on interleaves\nInterleave, duration             : 32 ms (0.80 video frame)","torrent":{"xt":"urn:btih:1be31ce8ee300e00c51e6b57913b7585c25d021a","amp;dn":"The+Devil%5C%27s+Backbone+2001+DVDrip+EnglishSub+Klam","amp;tr":["udp%3A%2F%2Ftracker.openbittorrent.com%3A80","udp%3A%2F%2Fopen.demonii.com%3A1337","udp%3A%2F%2Ftracker.coppersurfer.tk%3A6969","udp%3A%2F%2Fexodus.desync.com%3A6969"],"infoHash":"1be31ce8ee300e00c51e6b57913b7585c25d021a","infoHashBuffer":{"type":"Buffer","data":[27,227,28,232,238,48,14,0,197,30,107,87,145,59,117,133,194,93,2,26]},"announce":[],"urlList":[]}}